<?xml version="1.0" encoding="UTF-8" standalone="no"?>
<svg
   viewBox="0 0 512 512"
   fill="hsl(199deg 100% 50%)"
   version="1.1"
   id="svg35"
   sodipodi:docname="hearts_neon.svg"
   inkscape:version="1.1.1 (3bf5ae0d25, 2021-09-20)"
   xmlns:inkscape="http://www.inkscape.org/namespaces/inkscape"
   xmlns:sodipodi="http://sodipodi.sourceforge.net/DTD/sodipodi-0.dtd"
   xmlns="http://www.w3.org/2000/svg"
   xmlns:svg="http://www.w3.org/2000/svg">
  <defs
     id="defs39" />
  <sodipodi:namedview
     id="namedview37"
     pagecolor="#ffffff"
     bordercolor="#666666"
     borderopacity="1.0"
     inkscape:pageshadow="2"
     inkscape:pageopacity="0.0"
     inkscape:pagecheckerboard="0"
     showgrid="false"
     showguides="true"
     inkscape:guide-bbox="true"
     inkscape:zoom="1"
     inkscape:cx="221.5"
     inkscape:cy="278.5"
     inkscape:window-width="1366"
     inkscape:window-height="705"
     inkscape:window-x="-8"
     inkscape:window-y="-8"
     inkscape:window-maximized="1"
     inkscape:current-layer="svg35">
    <sodipodi:guide
       position="269.26358,258.18913"
       orientation="0,-1"
       id="guide1010" />
    <sodipodi:guide
       position="286.35815,446.15694"
       orientation="0,-1"
       id="guide1012" />
    <sodipodi:guide
       position="136.84766,445.86328"
       orientation="1,0"
       id="guide1041" />
  </sodipodi:namedview>
  <path
     d="m 26.913482,129.72683 v -2.49071 c 0,-30.017199 21.69484,-55.619861 51.274029,-60.549721 19.195554,-3.259385 39.507629,3.121962 53.507069,17.142872 l 5.15316,5.144587 4.76669,-5.144587 c 14.38593,-14.02091 34.31152,-20.402257 53.89355,-17.142872 29.58778,4.92986 51.27404,30.532522 51.27404,60.549721 v 2.49071 c 0,17.82138 -7.38621,34.86977 -20.44091,47.02265 l -77.59814,72.44498 c -3.22073,3.00602 -7.47208,4.68079 -11.89523,4.68079 -4.42313,0 -8.6745,-1.67477 -11.89522,-4.68079 L 47.35009,176.74948 C 34.312574,164.5966 26.913611,147.54821 26.913611,129.72683 Z"
     id="path33"
     style="fill:#00aeff;fill-opacity:1;stroke-width:0.429431;filter: drop-shadow(0px 10px 0.5em hsl(199deg 100% 50%));" />
  <path
     d="m 276.74646,129.73267 v -2.49107 c 0,-30.021594 21.69801,-55.628009 51.28153,-60.558591 19.19836,-3.259861 39.51342,3.122419 53.5149,17.145386 l 5.15393,5.145341 4.76737,-5.145341 c 14.38805,-14.022967 34.31655,-20.405247 53.90145,-17.145386 29.59212,4.930582 51.28155,30.536997 51.28155,60.558591 v 2.49107 c 0,17.82398 -7.3873,34.87488 -20.4439,47.02954 l -77.6095,72.45558 c -3.2212,3.00646 -7.47319,4.68148 -11.89697,4.68148 -4.42379,0 -8.67577,-1.67502 -11.89697,-4.68148 l -77.61379,-72.45558 c -13.03943,-12.15466 -20.43947,-29.20556 -20.43947,-47.02954 z"
     id="path1008"
     style="fill:#ff14bd;fill-opacity:1;stroke-width:0.429494; filter: drop-shadow(0px 10px 0.5em hsl(317 100% 54%));" />
  <path
     d="m 26.913401,338.38615 v -2.49071 c 0,-30.0172 21.69484,-55.61986 51.274029,-60.54972 19.195554,-3.25938 39.50763,3.12196 53.50707,17.14287 l 5.15316,5.14459 4.76669,-5.14459 c 14.38593,-14.02091 34.31152,-20.40225 53.89355,-17.14287 29.58778,4.92986 51.27404,30.53252 51.27404,60.54972 v 2.49071 c 0,17.82138 -7.38621,34.86977 -20.44091,47.02265 l -77.59814,72.44498 c -3.22073,3.00602 -7.47208,4.68079 -11.89523,4.68079 -4.42313,0 -8.6745,-1.67477 -11.89522,-4.68079 L 47.350009,385.4088 C 34.312493,373.25592 26.91353,356.20753 26.91353,338.38615 Z"
     id="path33-4"
     style="fill:#ff14bd;fill-opacity:1;stroke-width:0.429431; filter: drop-shadow(0px 10px 0.5em hsl(317 100% 54%));" />
  <path
     d="m 276.74638,338.39199 v -2.49107 c 0,-30.02159 21.69801,-55.62801 51.28153,-60.55859 19.19836,-3.25986 39.51342,3.12242 53.5149,17.14539 l 5.15393,5.14534 4.76737,-5.14534 c 14.38805,-14.02297 34.31655,-20.40525 53.90145,-17.14539 29.59212,4.93058 51.28155,30.537 51.28155,60.55859 v 2.49107 c 0,17.82398 -7.3873,34.87488 -20.4439,47.02954 l -77.6095,72.45558 c -3.2212,3.00646 -7.47319,4.68148 -11.89697,4.68148 -4.42379,0 -8.67577,-1.67502 -11.89697,-4.68148 l -77.61379,-72.45558 c -13.03943,-12.15466 -20.43947,-29.20556 -20.43947,-47.02954 z"
     id="path1008-4"
     style="fill:#00aeff;fill-opacity:1;stroke-width:0.429494;filter: drop-shadow(0px 10px 0.5em hsl(199deg 100% 50%));" />
</svg>
